<?xml version="1.0" encoding="UTF-8" standalone="no"?>
<svg width="94px" height="81px" viewBox="0 0 94 81" version="1.1" xmlns="http://www.w3.org/2000/svg" xmlns:xlink="http://www.w3.org/1999/xlink" xmlns:sketch="http://www.bohemiancoding.com/sketch/ns">
    <!-- Generator: Sketch 3.1 (8751) - http://www.bohemiancoding.com/sketch -->
    <title>1415224769_heart</title>
    <desc>Created with Sketch.</desc>
    <defs></defs>
    <g id="Welcome" stroke="none" stroke-width="1" fill="none" fill-rule="evenodd" sketch:type="MSPage">
        <g id="Home-Page" sketch:type="MSArtboardGroup" transform="translate(-13.000000, -501.000000)" fill="#50555A">
            <g id="1415224769_heart" sketch:type="MSLayerGroup" transform="translate(13.000000, 501.000000)">
                <path d="M86.598,7.029 C77.225,-2.344 62.03,-2.344 52.658,7.029 L47,12.686 L41.343,7.03 C31.97,-2.343 16.774,-2.343 7.402,7.03 C-1.971,16.403 -1.971,31.598 7.402,40.971 L13.059,46.625 L47,80.566 L80.941,46.625 L86.597,40.971 C95.971,31.598 95.971,16.402 86.598,7.029 L86.598,7.029 Z M69.627,46.627 L47,69.254 L24.374,46.627 L13.061,35.314 C6.812,29.066 6.812,18.935 13.061,12.685 C19.31,6.437 29.44,6.437 35.688,12.685 L47,24 L58.314,12.686 C64.562,6.438 74.693,6.438 80.941,12.686 C87.189,18.936 87.189,29.065 80.941,35.315 L69.627,46.627 L69.627,46.627 Z" id="Shape" sketch:type="MSShapeGroup"></path>
            </g>
        </g>
    </g>
</svg>